<svg width="100" height="20" viewBox="0 0 100 20" fill="none" xmlns="http://www.w3.org/2000/svg">
<path d="M15.9189 0.150146H0.0488892V4.01015L1.49889 9.75015L6.04889 10.0101L9.90889 6.15015L17.5489 4.51015L15.9189 0.150146Z" fill="#00C425"/>
<path d="M0.0488892 4.01001V19.88H3.90889L10.3689 19.34L9.91889 13.87L0.0488892 4.01001V4.01001Z" fill="#3AF23A"/>
<path d="M3.90631 19.8798H19.7763V16.0198L18.0863 10.8798L13.7663 10.0098L3.90631 19.8798Z" fill="#006446"/>
<path d="M95.6784 7.98029L92.1884 11.1504L95.6784 14.3404V16.1805H95.5684L90.3884 11.4804V15.9505H88.8884V2.43017H90.3884V10.8804L95.5384 6.19025H95.6784V7.98029V7.98029ZM27.9884 15.9505H35.6484V14.4404H29.5484V2.87018H27.9884V15.9505ZM40.9484 6.20025C38.5984 6.20025 36.4584 8.11029 36.4584 11.1904C36.4584 14.1804 38.4184 16.1605 41.2384 16.1605C42.4984 16.1605 43.6584 15.8405 44.7084 15.0804V13.4704C43.6084 14.3904 42.3884 14.7804 41.2884 14.7804C39.5984 14.7804 38.0984 13.7304 37.9584 11.7704H45.0984C45.1184 11.5804 45.1584 11.1604 45.1584 11.0004C45.1584 7.85029 43.2584 6.20025 40.9484 6.20025V6.20025ZM40.9584 7.57028C42.2884 7.57028 43.6384 8.4303 43.6884 10.4603H37.9484C38.0384 8.89031 39.2484 7.57028 40.9584 7.57028ZM66.1484 6.20025C64.8784 6.20025 63.9584 6.87027 63.4084 7.86029C62.9484 6.80026 62.0984 6.20025 60.7384 6.20025C59.5484 6.20025 58.6684 6.89027 58.1884 7.81029H58.1484L57.9684 6.39025H56.7784V15.9405H58.2984V9.91033C58.2984 8.74031 59.0284 7.65028 60.3484 7.65028C61.6384 7.65028 62.2084 8.4103 62.2084 9.79033V15.9505H63.7284V9.81033C63.7284 8.70031 64.4684 7.65028 65.7684 7.65028C67.0784 7.65028 67.6384 8.4103 67.6384 9.79033V15.9505H69.1584V9.58032C69.1684 7.58028 68.2384 6.20025 66.1484 6.20025V6.20025ZM75.3184 6.20025C73.0384 6.20025 70.9084 8.13029 70.9084 11.1904C70.9084 14.2104 73.0284 16.1605 75.3184 16.1605C76.7484 16.1605 78.0984 15.4905 78.8184 14.1604H78.8384L79.0184 15.9505H80.2584V6.40025H79.0184L78.8384 8.19029H78.8184C78.0984 6.88026 76.7484 6.20025 75.3184 6.20025ZM75.5984 7.62028C77.3984 7.62028 78.7684 9.07031 78.7684 11.1804C78.7684 13.2804 77.4084 14.7404 75.5984 14.7404C73.8284 14.7404 72.4284 13.3104 72.4284 11.2004C72.4284 9.05031 73.8284 7.62028 75.5984 7.62028V7.62028ZM86.7384 6.29025C85.9084 6.29025 84.6484 6.68026 83.9984 7.92029H83.9784L83.8184 6.40025H82.5984V15.9505H84.1184V10.4503C84.1184 8.2403 85.9084 7.55028 87.3784 7.85029V6.34025C87.1784 6.31025 86.9884 6.29025 86.7384 6.29025V6.29025ZM54.8284 6.18025H54.7084L50.7184 10.1603L46.7384 6.18025H46.6184V8.11029L49.6884 11.1804L46.6184 14.2304V16.1805H46.7384L50.6984 12.1804L54.7084 16.1805H54.8284V14.2204L51.7284 11.1504L54.8284 8.03029V6.18025V6.18025ZM95.6784 2.64017V2.43017H97.3384V2.64017H96.6384V4.30021H96.3884V2.63017C96.3784 2.64017 95.6784 2.64017 95.6784 2.64017V2.64017ZM98.1784 2.43017L98.8984 4.0102L99.6184 2.43017H99.9584V4.30021H99.7184V2.73017L98.9984 4.30021H98.7884L98.0784 2.73017V4.30021H97.8384V2.42017H98.1784V2.43017Z" fill="#32323C"/>
<path d="M19.7819 16.0201V0.150146H15.9219L9.92194 6.15015L19.7819 16.0201Z" fill="#008A44"/>
</svg>
