<svg width="100" height="28" viewBox="0 0 100 28" fill="none" xmlns="http://www.w3.org/2000/svg">
<path d="M13.7503 25.7707C12.246 26.0349 10.7152 26.1141 9.13174 26.325L4.30186 12.1789V26.9321C2.79756 27.0904 1.4252 27.3016 0 27.5127V0.487061H4.01172L9.50117 15.8212V0.487061H13.7503V25.7707ZM22.0639 10.3842C23.7003 10.3842 26.2075 10.305 27.7118 10.305V14.5276C25.8379 14.5276 23.6475 14.5276 22.0639 14.6068V20.8883C24.5448 20.73 27.0257 20.5186 29.5328 20.4394V24.5036L17.841 25.4275V0.487061H29.5328V4.70982H22.0639V10.3842ZM45.2361 4.70992H40.8551V24.1346C39.4299 24.1346 38.0047 24.1346 36.6325 24.1872V4.70992H32.2515V0.487061H45.2363L45.2361 4.70992V4.70992ZM52.098 10.0939H57.878V14.3166H52.098V23.8971H47.9542V0.487061H59.7519V4.70982H52.098V10.0939ZM66.6138 20.202C69.0155 20.2547 71.4435 20.4397 73.7925 20.5715V24.7415C70.0185 24.5038 66.2443 24.2666 62.3911 24.1872V0.487061H66.6138V20.202ZM77.3554 25.0318C78.7014 25.1111 80.1266 25.1903 81.4989 25.3484V0.487061H77.3554V25.0318ZM100 0.487061L94.6423 13.3401L100 27.5127C98.4163 27.3016 96.8328 27.0112 95.2492 26.7473L92.2143 18.9353L89.1267 26.1141C87.5956 25.8499 86.1177 25.7707 84.5872 25.5596L90.0239 13.1816L85.1148 0.487061H89.6541L92.4253 7.58659L95.3813 0.487061H100Z" fill="#D81F26"/>
</svg>
