<svg width="16" height="17" viewBox="0 0 16 17" fill="none" xmlns="http://www.w3.org/2000/svg">
<path d="M8.27569 12.4208L11.4279 14.4179C11.8308 14.6732 12.3311 14.2935 12.2115 13.8232L11.3008 10.2405C11.2752 10.1407 11.2782 10.0357 11.3096 9.9376C11.3409 9.83946 11.3994 9.75218 11.4781 9.68577L14.3049 7.33306C14.6763 7.02392 14.4846 6.40751 14.0074 6.37654L10.3159 6.13696C10.2165 6.12986 10.1211 6.09465 10.0409 6.03545C9.96069 5.97625 9.89896 5.89548 9.86289 5.80255L8.48612 2.33549C8.44869 2.23685 8.38215 2.15194 8.29532 2.09201C8.2085 2.03209 8.1055 2 8 2C7.89451 2 7.79151 2.03209 7.70468 2.09201C7.61786 2.15194 7.55131 2.23685 7.51389 2.33549L6.13712 5.80255C6.10104 5.89548 6.03932 5.97625 5.95912 6.03545C5.87892 6.09465 5.78355 6.12986 5.68412 6.13696L1.99263 6.37654C1.51544 6.40751 1.32373 7.02392 1.69515 7.33306L4.52186 9.68577C4.60063 9.75218 4.65907 9.83946 4.69044 9.9376C4.72181 10.0357 4.72485 10.1407 4.6992 10.2405L3.85459 13.563C3.71111 14.1274 4.31143 14.583 4.79495 14.2767L7.72431 12.4208C7.8067 12.3683 7.90234 12.3405 8 12.3405C8.09767 12.3405 8.19331 12.3683 8.27569 12.4208Z" fill="#FD8E1F"/>
</svg>
