<svg width="100" height="24" viewBox="0 0 100 24" fill="none" xmlns="http://www.w3.org/2000/svg">
<path fill-rule="evenodd" clip-rule="evenodd" d="M28.4069 1.5026C29.7818 1.87297 30.8625 2.95354 31.2278 4.32347C31.8925 6.80949 31.8925 11.9998 31.8925 11.9998C31.8925 11.9998 31.8925 17.1901 31.2278 19.6761C30.8574 21.051 29.7769 22.1317 28.4069 22.497C25.9209 23.1617 15.9463 23.1617 15.9463 23.1617C15.9463 23.1617 5.97672 23.1617 3.48558 22.497C2.11067 22.1266 1.02997 21.046 0.664706 19.6761C0 17.1901 0 11.9997 0 11.9997C0 11.9997 0 6.80949 0.664706 4.32347C1.03508 2.94856 2.11578 1.86786 3.48558 1.5026C5.97672 0.837891 15.9463 0.837891 15.9463 0.837891C15.9463 0.837891 25.9209 0.837891 28.4069 1.5026ZM21.0452 11.9998L12.7601 16.7842V7.21545L21.0452 11.9998Z" fill="#FF0000"/>
<path fill-rule="evenodd" clip-rule="evenodd" d="M46.2914 21.1471C45.6622 20.721 45.2107 20.0614 44.9469 19.1635C44.683 18.2654 44.546 17.0731 44.546 15.5814V13.552C44.546 12.0452 44.6982 10.8377 45.0026 9.92433C45.307 9.01118 45.784 8.34661 46.4282 7.93048C47.0726 7.51448 47.92 7.30143 48.9701 7.30143C50.0052 7.30143 50.8322 7.51448 51.4561 7.9407C52.0802 8.3668 52.5368 9.0315 52.8261 9.93456C53.1153 10.8377 53.2574 12.0452 53.2574 13.5469V15.5764C53.2574 17.068 53.1153 18.2654 52.8362 19.1684C52.5572 20.0715 52.1007 20.7362 51.4664 21.1522C50.8372 21.5682 49.9798 21.7815 48.8991 21.7815C47.7931 21.7864 46.9204 21.5733 46.2914 21.1471V21.1471ZM49.8275 18.9554C50.0001 18.4988 50.0915 17.7529 50.0915 16.7231V12.3649C50.0915 11.3602 50.0052 10.6297 49.8275 10.1629C49.6551 9.70119 49.3456 9.46782 48.9042 9.46782C48.4781 9.46782 48.1786 9.70119 48.0011 10.1629C47.8286 10.6246 47.7373 11.3602 47.7373 12.3649V16.7231C47.7373 17.758 47.8185 18.5039 47.9859 18.9554C48.1533 19.412 48.4578 19.6403 48.8992 19.6403C49.3456 19.6403 49.65 19.412 49.8275 18.9554V18.9554ZM94.7286 15.6169V16.3223C94.7286 17.2202 94.7541 17.8899 94.8099 18.3414C94.8605 18.788 94.9722 19.1177 95.1396 19.3208C95.3071 19.5236 95.5657 19.6302 95.9158 19.6302C96.3878 19.6302 96.7124 19.4476 96.8849 19.0822C97.0575 18.7169 97.1537 18.1081 97.169 17.2557L99.8833 17.4131C99.8986 17.5347 99.9036 17.7022 99.9036 17.9152C99.9036 19.2091 99.5485 20.173 98.8432 20.8122C98.138 21.4515 97.1386 21.7712 95.8449 21.7712C94.2923 21.7712 93.2066 21.2841 92.5826 20.31C91.9585 19.3359 91.6491 17.8341 91.6491 15.7946V13.3542C91.6491 11.2537 91.9737 9.72649 92.618 8.75762C93.2623 7.7936 94.3683 7.31153 95.9362 7.31153C97.0168 7.31153 97.8438 7.5095 98.4221 7.90518C99.0006 8.30085 99.4065 8.91469 99.645 9.75193C99.8783 10.589 100 11.7459 100 13.2172V15.6119H94.7286V15.6169ZM95.1294 9.7316C94.9721 9.92957 94.8656 10.2542 94.8098 10.7007C94.7539 11.1472 94.7286 11.8322 94.7286 12.7402V13.7449H97.032V12.7402C97.032 11.8421 97.0016 11.1624 96.9406 10.7007C96.8798 10.239 96.7682 9.90925 96.6109 9.72151C96.4536 9.53377 96.205 9.4374 95.8702 9.4374C95.5353 9.43229 95.2867 9.53377 95.1294 9.7316ZM38.6302 15.3531L35.0484 2.42064H38.1736L39.4268 8.28066C39.7464 9.72662 39.9798 10.9544 40.132 11.9742H40.2233C40.3299 11.2435 40.5632 10.0208 40.9286 8.30085L42.2274 2.41553H45.3527L41.7302 15.3531V21.5581H38.6302V15.3531ZM63.4197 7.57544V21.553H60.9589L60.6849 19.8432H60.619C59.9493 21.137 58.9448 21.7814 57.6104 21.7814C56.682 21.7814 55.997 21.4769 55.5557 20.8681C55.1143 20.2592 54.8961 19.3106 54.8961 18.0168V7.57544H58.0417V17.8392C58.0417 18.4632 58.1077 18.9098 58.2447 19.1736C58.3817 19.4373 58.6099 19.5743 58.9296 19.5743C59.2036 19.5743 59.4674 19.4931 59.7159 19.3258C59.9645 19.1583 60.1523 18.9452 60.2741 18.6865V7.57531L63.4197 7.57544ZM79.5638 7.57544V21.553H77.103L76.829 19.8432H76.7631C76.0934 21.137 75.0889 21.7814 73.7545 21.7814C72.8261 21.7814 72.1411 21.4769 71.6998 20.8681C71.2583 20.2592 71.0402 19.3106 71.0402 18.0168V7.57544H74.1858V17.8392C74.1858 18.4632 74.2518 18.9098 74.3888 19.1736C74.5256 19.4373 74.754 19.5743 75.0737 19.5743C75.3477 19.5743 75.6114 19.4931 75.86 19.3258C76.1086 19.1583 76.2963 18.9452 76.4181 18.6865V7.57531L79.5638 7.57544Z" fill="#282828"/>
<path fill-rule="evenodd" clip-rule="evenodd" d="M71.9737 4.95257H68.8485V21.5532H65.7688V4.95257H62.6435V2.42092H71.9686V4.95257H71.9737ZM89.9798 9.81292C89.7871 8.93018 89.4826 8.29091 89.0564 7.89524C88.6303 7.49943 88.0469 7.30159 87.3009 7.30159C86.7227 7.30159 86.1848 7.4639 85.6825 7.79376C85.1803 8.11838 84.7947 8.54971 84.5207 9.0824H84.4954V1.71558H81.4613V21.5583H84.0589L84.3786 20.2341H84.4446C84.6881 20.706 85.0534 21.0763 85.5404 21.3502C86.0275 21.6242 86.5654 21.7612 87.1589 21.7612C88.2244 21.7612 89.0057 21.269 89.5081 20.2898C90.0102 19.3107 90.2589 17.7785 90.2589 15.6933V13.4811C90.264 11.9185 90.1675 10.6958 89.9798 9.81305V9.81292ZM87.093 15.5156C87.093 16.5355 87.0523 17.332 86.9662 17.9104C86.8849 18.4888 86.7429 18.8997 86.5451 19.1433C86.3471 19.3868 86.0833 19.5086 85.7485 19.5086C85.4897 19.5086 85.2513 19.4477 85.0281 19.3259C84.8099 19.2041 84.6273 19.0215 84.4903 18.7779V10.8379C84.5968 10.4573 84.7795 10.1479 85.0383 9.90443C85.2969 9.66083 85.5759 9.53904 85.8804 9.53904C86.2 9.53904 86.4486 9.66582 86.6211 9.91439C86.7936 10.1631 86.9154 10.5892 86.9864 11.1777C87.0525 11.7714 87.0878 12.6136 87.0878 13.7094V15.5156H87.093Z" fill="#282828"/>
</svg>
